<svg width="55" height="55" viewBox="0 0 55 55" fill="none" xmlns="http://www.w3.org/2000/svg">
<path fill-rule="evenodd" clip-rule="evenodd" d="M27.5 42.25C35.6462 42.25 42.25 35.6462 42.25 27.5C42.25 19.3538 35.6462 12.75 27.5 12.75C19.3538 12.75 12.75 19.3538 12.75 27.5C12.75 35.6462 19.3538 42.25 27.5 42.25ZM27.5 37.3333C32.9307 37.3333 37.3333 32.9307 37.3333 27.5C37.3333 22.0692 32.9307 17.6667 27.5 17.6667C22.0692 17.6667 17.6667 22.0692 17.6667 27.5C17.6667 32.9307 22.0692 37.3333 27.5 37.3333Z" fill="url(#paint0_radial_1_1097)"/>
<path d="M42.25 10.291C40.8923 10.291 39.7917 11.3917 39.7917 12.7493C39.7917 14.107 40.8923 15.2077 42.25 15.2077C43.6078 15.2077 44.7084 14.107 44.7084 12.7493C44.7084 11.3917 43.6078 10.291 42.25 10.291Z" fill="url(#paint1_radial_1_1097)"/>
<path fill-rule="evenodd" clip-rule="evenodd" d="M2.066 8.51165C0.458344 11.6669 0.458344 15.7972 0.458344 24.058V30.9413C0.458344 39.2021 0.458344 43.3326 2.066 46.4876C3.48013 49.2631 5.73658 51.5196 8.51199 52.9336C11.6672 54.5413 15.7976 54.5413 24.0583 54.5413H30.9417C39.2024 54.5413 43.3329 54.5413 46.4879 52.9336C49.2634 51.5196 51.5199 49.2631 52.9339 46.4876C54.5417 43.3326 54.5417 39.2021 54.5417 30.9413V24.058C54.5417 15.7972 54.5417 11.6669 52.9339 8.51165C51.5199 5.73625 49.2634 3.47979 46.4879 2.06566C43.3329 0.458008 39.2024 0.458008 30.9417 0.458008H24.0583C15.7976 0.458008 11.6672 0.458008 8.51199 2.06566C5.73658 3.47979 3.48013 5.73625 2.066 8.51165ZM30.9417 5.37467H24.0583C19.8468 5.37467 16.9839 5.37851 14.771 5.5593C12.6154 5.73541 11.5131 6.05463 10.7441 6.44643C8.89384 7.3892 7.38954 8.89351 6.44677 10.7438C6.05496 11.5127 5.73575 12.6151 5.55963 14.7706C5.37884 16.9835 5.37501 19.8465 5.37501 24.058V30.9413C5.37501 35.153 5.37884 38.0157 5.55963 40.2287C5.73575 42.3844 6.05496 43.4867 6.44677 44.2557C7.38954 46.1058 8.89384 47.6101 10.7441 48.5528C11.5131 48.9447 12.6154 49.264 14.771 49.4401C16.9839 49.6207 19.8468 49.6247 24.0583 49.6247H30.9417C35.1533 49.6247 38.016 49.6207 40.229 49.4401C42.3847 49.264 43.487 48.9447 44.256 48.5528C46.1062 47.6101 47.6104 46.1058 48.5532 44.2557C48.945 43.4867 49.2644 42.3844 49.4404 40.2287C49.6211 38.0157 49.625 35.153 49.625 30.9413V24.058C49.625 19.8465 49.6211 16.9835 49.4404 14.7706C49.2644 12.6151 48.945 11.5127 48.5532 10.7438C47.6104 8.89351 46.1062 7.3892 44.256 6.44643C43.487 6.05463 42.3847 5.73541 40.229 5.5593C38.016 5.37851 35.1533 5.37467 30.9417 5.37467Z" fill="url(#paint2_radial_1_1097)"/>
<defs>
<radialGradient id="paint0_radial_1_1097" cx="0" cy="0" r="1" gradientUnits="userSpaceOnUse" gradientTransform="translate(27.9707 12.75) scale(13.8085 29.5)">
<stop stop-color="#D5AD79"/>
<stop offset="1" stop-color="#D5AD79"/>
</radialGradient>
<radialGradient id="paint1_radial_1_1097" cx="0" cy="0" r="1" gradientUnits="userSpaceOnUse" gradientTransform="translate(42.3285 10.291) scale(2.30142 4.91667)">
<stop stop-color="#D5AD79"/>
<stop offset="1" stop-color="#D5AD79"/>
</radialGradient>
<radialGradient id="paint2_radial_1_1097" cx="0" cy="0" r="1" gradientUnits="userSpaceOnUse" gradientTransform="translate(28.363 0.458005) scale(25.3156 54.0833)">
<stop stop-color="#D5AD79"/>
<stop offset="1" stop-color="#D5AD79"/>
</radialGradient>
</defs>
</svg>
