<svg width="646" height="551" viewBox="0 0 646 551" fill="none" xmlns="http://www.w3.org/2000/svg">
<path d="M389.57 326.51C400.29 328.7 410.4 338.07 404.81 359.46C410.53 356.84 415.64 354.5 421.28 351.92C414.21 345.03 407.46 338.58 408.62 328.26C409.18 323.21 411.56 318.94 415.25 315.52C427.91 321.18 430.43 331.19 424.67 350.26C431.72 345.11 438.77 339.97 445.95 334.73C441.52 331.95 437.8 330.01 434.54 327.47C429.08 323.22 427.13 315.66 429.72 309.38C430.11 308.43 432.1 307.44 433.2 307.6C441.04 308.71 446.76 314.49 448.36 322.42C448.87 324.97 449.55 327.49 450.2 330.22C454.2 325.66 458.53 320.74 463.11 315.52C456.09 309.74 448.61 304.53 449 294.82C449.17 290.46 451.31 286.17 452.56 281.87C465.01 285.44 468.9 294.21 466.75 310.4C471.39 303.1 476.04 295.8 480.72 288.44C462.59 279.33 459.05 273.6 463.44 261.08C474.4 260.79 479.35 266.62 482.7 284.29C485.27 278.86 487.6 273.96 490.05 268.78C483.8 266 477.2 263.72 475.27 256.69C474.28 253.11 474.84 249.11 474.7 245.25C485.01 245.53 489.53 250.2 492.58 263.65C494.83 257.93 496.95 253.28 498.4 248.43C498.87 246.85 497.89 244.58 497.02 242.9C491.08 231.4 493.64 220.85 503.91 215.12C511.8 221.69 513.44 230.94 506.95 238.87C502.21 244.66 499.39 251.03 497.15 258.64C498.97 257.44 500.35 256.37 501.87 255.56C506.23 253.24 510.59 253.73 514.77 256.01C515.35 256.33 515.83 257.87 515.55 258.51C513.71 262.83 510.9 266.59 505.96 267.07C502.02 267.46 497.96 266.67 493.46 266.37C491.43 270.96 489.19 276.03 486.96 281.1C497.03 273.87 506.7 273.28 516.55 281.68C513.41 288.01 508.94 293.2 501.83 293.11C495.69 293.03 489.57 290.68 482.86 289.21C480.57 293.1 477.75 297.89 474.16 303.97C483.33 298.18 490.99 298.1 498.07 304.87C493.72 314.61 484.68 318.37 469.89 310.14C467.83 312.8 465.73 315.52 463.62 318.25C461.58 320.89 459.53 323.53 457.85 325.71C462.33 325.07 467.49 323.17 472.19 323.97C477 324.79 481.35 328.26 485.87 330.55C479.7 343.68 467.52 344.13 451.4 332.67C446.62 336.74 441.76 340.88 436.38 345.46C439.66 344.89 442.18 344.29 444.73 344.04C454.63 343.08 461.67 347.66 467.09 355.56C468.74 357.97 467.2 358.93 465.72 360.12C455.39 368.43 442.62 367.04 432.55 356.5C430.95 354.83 429.42 353.09 427.65 351.16C421.68 354.32 415.72 357.48 408.81 361.14C425.24 363.3 434.89 371.14 434.86 387.91C419.68 393.13 409.55 385.28 403.29 364.13C397.81 364.66 392.41 365.19 387 365.72C386.89 365.22 386.78 364.72 386.67 364.22C391.66 362.92 396.64 361.61 401.99 360.21C385.02 348.45 381.47 338.5 389.57 326.51Z" fill="#D4AD79"/>
<path d="M364.76 52.21C364.76 52.21 438.53 63.68 463.52 97.29C463.52 97.29 445.08 254.66 429.51 280.48C413.94 306.3 359.02 344.82 326.24 350.15C293.46 344.82 238.54 306.3 222.97 280.48C207.4 254.66 188.96 97.29 188.96 97.29C213.96 63.69 287.72 52.21 287.72 52.21" stroke="#D4AD79" stroke-width="4" stroke-miterlimit="10"/>
<path d="M326.23 335.8C326.23 335.8 389.98 319 414.75 282.11C439.52 245.22 451.63 103.02 451.63 103.02C420.89 64.91 326.23 63.68 326.23 63.68C326.23 63.68 231.56 64.91 200.83 103.02C200.83 103.02 212.95 245.22 237.71 282.11C262.47 319 326.23 335.8 326.23 335.8Z" stroke="#D4AD79" stroke-width="2" stroke-miterlimit="10"/>
<path d="M202.48 119.91H449.99" stroke="#D4AD79" stroke-width="2" stroke-miterlimit="10"/>
<path d="M231.68 270.58H420.79" stroke="#D4AD79" stroke-width="2" stroke-miterlimit="10"/>
<path d="M326.71 63.69V119.91" stroke="#D4AD79" stroke-width="2" stroke-miterlimit="10"/>
<path d="M334.77 64.03V119.91" stroke="#D4AD79" stroke-width="2" stroke-miterlimit="10"/>
<path d="M342.14 64.53V119.91" stroke="#D4AD79" stroke-width="2" stroke-miterlimit="10"/>
<path d="M349.83 65.21V119.91" stroke="#D4AD79" stroke-width="2" stroke-miterlimit="10"/>
<path d="M356.92 65.98V119.91" stroke="#D4AD79" stroke-width="2" stroke-miterlimit="10"/>
<path d="M365.3 67.08V119.91" stroke="#D4AD79" stroke-width="2" stroke-miterlimit="10"/>
<path d="M373.2 68.32V119.91" stroke="#D4AD79" stroke-width="2" stroke-miterlimit="10"/>
<path d="M381.51 69.86V119.91" stroke="#D4AD79" stroke-width="2" stroke-miterlimit="10"/>
<path d="M389.43 71.67V119.91" stroke="#D4AD79" stroke-width="2" stroke-miterlimit="10"/>
<path d="M397.35 73.54V119.91" stroke="#D4AD79" stroke-width="2" stroke-miterlimit="10"/>
<path d="M404.9 75.72V119.91" stroke="#D4AD79" stroke-width="2" stroke-miterlimit="10"/>
<path d="M412.46 78.25V119.91" stroke="#D4AD79" stroke-width="2" stroke-miterlimit="10"/>
<path d="M420.31 81.27V119.91" stroke="#D4AD79" stroke-width="2" stroke-miterlimit="10"/>
<path d="M428.21 85.47V119.91" stroke="#D4AD79" stroke-width="2" stroke-miterlimit="10"/>
<path d="M436.1 89.54V119.91" stroke="#D4AD79" stroke-width="2" stroke-miterlimit="10"/>
<path d="M444.57 95.79V119.91" stroke="#D4AD79" stroke-width="2" stroke-miterlimit="10"/>
<path d="M319 63.69V119.91" stroke="#D4AD79" stroke-width="2" stroke-miterlimit="10"/>
<path d="M311.29 64.45V119.91" stroke="#D4AD79" stroke-width="2" stroke-miterlimit="10"/>
<path d="M302.63 65.21V119.91" stroke="#D4AD79" stroke-width="2" stroke-miterlimit="10"/>
<path d="M295.53 65.98V119.91" stroke="#D4AD79" stroke-width="2" stroke-miterlimit="10"/>
<path d="M287.17 67.08V119.91" stroke="#D4AD79" stroke-width="2" stroke-miterlimit="10"/>
<path d="M279.26 68.32V119.91" stroke="#D4AD79" stroke-width="2" stroke-miterlimit="10"/>
<path d="M271.5 69.75V119.91" stroke="#D4AD79" stroke-width="2" stroke-miterlimit="10"/>
<path d="M263.5 71.67V119.91" stroke="#D4AD79" stroke-width="2" stroke-miterlimit="10"/>
<path d="M255.39 73.54V119.91" stroke="#D4AD79" stroke-width="2" stroke-miterlimit="10"/>
<path d="M247.7 75.81V119.91" stroke="#D4AD79" stroke-width="2" stroke-miterlimit="10"/>
<path d="M240.3 78.25V119.91" stroke="#D4AD79" stroke-width="2" stroke-miterlimit="10"/>
<path d="M232.58 81.27V119.91" stroke="#D4AD79" stroke-width="2" stroke-miterlimit="10"/>
<path d="M225.12 84.71V119.91" stroke="#D4AD79" stroke-width="2" stroke-miterlimit="10"/>
<path d="M218.07 88.73V119.91" stroke="#D4AD79" stroke-width="2" stroke-miterlimit="10"/>
<path d="M209.64 94.88V119.91" stroke="#D4AD79" stroke-width="2" stroke-miterlimit="10"/>
<path d="M299.76 53.77H352.91L373.2 14.85L343.76 24.8L326.47 0L308.99 24.75L281.02 14.98L299.76 53.77Z" fill="#D4AD79"/>
<path d="M263.89 327.05C253.17 329.24 243.06 338.61 248.65 360C242.93 357.38 237.82 355.04 232.18 352.46C239.25 345.57 246 339.12 244.84 328.8C244.28 323.75 241.9 319.48 238.21 316.06C225.55 321.72 223.03 331.73 228.79 350.8C221.74 345.65 214.69 340.51 207.51 335.27C211.94 332.49 215.66 330.55 218.92 328.01C224.38 323.76 226.33 316.2 223.74 309.92C223.35 308.97 221.36 307.98 220.26 308.14C212.42 309.25 206.7 315.03 205.1 322.96C204.59 325.51 203.91 328.03 203.26 330.76C199.26 326.2 194.93 321.28 190.35 316.06C197.37 310.28 204.85 305.07 204.46 295.36C204.29 291 202.15 286.71 200.9 282.41C188.45 285.98 184.56 294.75 186.71 310.94C182.07 303.64 177.42 296.34 172.74 288.98C190.87 279.87 194.41 274.14 190.02 261.62C179.06 261.33 174.11 267.16 170.76 284.83C168.19 279.4 165.86 274.5 163.41 269.32C169.66 266.54 176.26 264.26 178.19 257.23C179.18 253.65 178.62 249.65 178.76 245.79C168.45 246.07 163.93 250.74 160.88 264.19C158.63 258.47 156.51 253.82 155.06 248.97C154.59 247.39 155.57 245.12 156.44 243.44C162.38 231.94 159.82 221.39 149.55 215.66C141.66 222.23 140.02 231.48 146.51 239.41C151.25 245.2 154.07 251.57 156.31 259.18C154.49 257.98 153.11 256.91 151.59 256.1C147.23 253.78 142.87 254.27 138.69 256.55C138.11 256.87 137.63 258.41 137.91 259.05C139.75 263.37 142.56 267.13 147.5 267.61C151.44 268 155.5 267.21 160 266.91C162.03 271.5 164.27 276.57 166.5 281.64C156.43 274.41 146.76 273.82 136.91 282.22C140.05 288.55 144.52 293.74 151.63 293.65C157.77 293.57 163.89 291.22 170.6 289.75C172.89 293.64 175.71 298.43 179.3 304.51C170.13 298.72 162.47 298.64 155.39 305.41C159.74 315.15 168.78 318.91 183.57 310.68C185.63 313.34 187.73 316.06 189.84 318.79C191.88 321.43 193.93 324.07 195.61 326.25C191.13 325.61 185.97 323.71 181.27 324.51C176.46 325.33 172.11 328.8 167.59 331.09C173.76 344.22 185.94 344.67 202.06 333.21C206.84 337.28 211.7 341.42 217.08 346C213.8 345.43 211.28 344.83 208.73 344.58C198.83 343.62 191.79 348.2 186.37 356.1C184.72 358.51 186.26 359.47 187.74 360.66C198.07 368.97 210.84 367.58 220.91 357.04C222.51 355.37 224.04 353.63 225.81 351.7C231.78 354.86 237.74 358.02 244.65 361.68C228.22 363.84 218.57 371.68 218.6 388.45C233.78 393.67 243.91 385.82 250.17 364.67C255.65 365.2 261.05 365.73 266.46 366.26C266.57 365.76 266.68 365.26 266.79 364.76C261.8 363.46 256.82 362.15 251.47 360.75C268.44 348.98 271.99 339.04 263.89 327.05Z" fill="#D4AD79"/>
<path d="M297.14 157.43C290.2 157.91 287.8 159.72 287.54 164.58C287.39 167.24 287.17 171.7 287.17 181.36V193.67C287.17 204.55 285.81 213.29 279.47 219.97C274.33 225.33 266.81 227.09 259.19 227.09C252.67 227.09 245.78 225.73 240.89 221.92C234.34 216.91 231.18 209.49 231.18 196.75V168.8C231.18 158.88 230.28 158.2 221.58 157.43V154.18H251.36V157.43C242.68 158.02 241.78 158.88 241.78 168.8V196.56C241.78 211.91 249.08 220.58 261.99 220.58C277.12 220.58 282.2 210.92 282.2 193.01V181.36C282.2 171.72 281.87 167.58 281.65 164.56C281.3 159.6 278.68 157.87 270.63 157.43V154.18H297.13V157.43H297.14Z" fill="#D4AD79"/>
<path d="M331.87 154.18C339.82 154.18 346.14 155.63 350.64 158.86C355.14 162.12 358.12 167.3 358.12 174.61C358.12 190.62 344.44 197.13 333.77 197.15C332.58 197.15 331.43 197.04 330.75 196.93L323.39 195.01V211.74C323.39 220.96 324.16 221.22 334.16 222.28V225.53H303.03V222.28C312.25 221.29 312.81 220.69 312.81 211.56V168.28C312.81 158.61 311.62 158.25 303.03 157.43V154.18H331.87ZM323.39 191.03C324.71 191.69 327.53 192.4 331.01 192.4C337.95 192.4 346.9 188.81 346.9 174.86C346.9 162.75 339.21 158.05 330.37 158.05C327.34 158.05 325.22 158.6 324.56 159.33C323.7 160.08 323.39 161.36 323.39 164.08V191.03Z" fill="#D4AD79"/>
<path d="M425.3 171.73C424.27 167.94 422.76 164.22 421.57 162.32C419.77 159.47 418.72 158.69 412.6 158.69H402.33V211.81C402.33 220.49 403.25 221.6 413.56 222.28V225.53H380.81V222.28C390.86 221.6 391.76 220.58 391.76 211.81V158.69H382.36C376.3 158.69 374.55 159.41 372.64 162.58C371.28 164.76 370.29 167.63 368.86 171.75H365.41C366.09 164.82 366.77 157.6 367.08 151.62H369.74C371.39 154.23 372.61 154.18 375.73 154.18H419.28C422.33 154.18 423.33 153.7 425.02 151.62H427.75C427.77 156.68 428.21 164.9 428.76 171.41L425.3 171.73Z" fill="#D4AD79"/>
<path d="M341.069 299.52C339.199 298.7 337.339 297.88 335.469 297.06C332.739 295.86 329.999 294.66 327.259 293.47C327.049 293.38 326.899 293.31 326.899 293.01C326.909 287.37 326.909 281.73 326.909 276.09C326.909 276.05 326.929 276.01 326.959 275.86C331.709 283.77 336.429 291.61 341.139 299.44C341.109 299.48 341.089 299.5 341.069 299.52Z" fill="#D4AD79"/>
<path d="M311.88 299.45C316.58 291.56 321.22 283.76 325.85 275.97C325.88 275.97 325.92 275.98 325.95 275.98C325.95 276.14 325.95 276.3 325.95 276.46C325.95 281.94 325.95 287.42 325.95 292.9C325.95 293.14 325.96 293.33 325.67 293.46C321.16 295.42 316.65 297.4 312.15 299.37C312.11 299.39 312.06 299.39 311.88 299.45Z" fill="#D4AD79"/>
<path d="M326.91 309.29C326.91 304.29 326.91 299.38 326.91 294.37C331.77 296.5 336.59 298.61 341.5 300.76C336.6 303.62 331.8 306.43 326.91 309.29Z" fill="#D4AD79"/>
<path d="M311.38 300.75C316.29 298.6 321.09 296.5 325.93 294.38C325.93 299.37 325.93 304.29 325.93 309.28C321.08 306.43 316.28 303.62 311.38 300.75Z" fill="#D4AD79"/>
<path d="M326.909 324.13C326.909 323.19 326.909 322.25 326.909 321.31C326.909 318.44 326.909 315.58 326.899 312.71C326.899 312.46 326.939 312.29 327.189 312.14C331.759 309.48 336.309 306.81 340.879 304.14C340.979 304.08 341.089 304.03 341.249 304.04C336.499 310.75 331.759 317.46 327.009 324.18C326.979 324.15 326.939 324.14 326.909 324.13Z" fill="#D4AD79"/>
<path d="M311.69 303.96C313.6 305.08 315.52 306.2 317.43 307.31C320.16 308.91 322.88 310.5 325.62 312.1C325.84 312.23 325.97 312.35 325.97 312.64C325.96 316.4 325.96 320.17 325.96 323.93C325.96 323.99 325.95 324.05 325.94 324.27C321.12 317.45 316.37 310.74 311.63 304.03C311.64 304 311.67 303.98 311.69 303.96Z" fill="#D4AD79"/>
<path d="M270.45 303.69C270.45 302.73 270.45 301.81 270.45 300.86C270.59 300.85 270.72 300.84 270.85 300.84C271.49 300.84 272.14 300.85 272.78 300.84C273.63 300.83 274.25 300.25 274.34 299.41C274.36 299.26 274.36 299.11 274.36 298.96C274.36 293.93 274.36 288.9 274.36 283.87C274.36 282.69 273.75 282.08 272.58 282.08C271.88 282.08 271.17 282.08 270.45 282.08C270.45 281.11 270.45 280.19 270.45 279.22C272.96 279.22 275.44 279.22 277.98 279.22C277.98 278 277.98 276.82 277.98 275.62C278.7 275.62 279.36 275.62 280.07 275.62C280.07 276.81 280.07 277.99 280.07 279.2C280.9 279.2 281.69 279.2 282.52 279.2C282.52 278.02 282.52 276.84 282.52 275.63C283.23 275.63 283.91 275.63 284.62 275.63C284.62 276.87 284.62 278.1 284.62 279.35C285.14 279.45 285.63 279.52 286.1 279.64C287.59 280.01 288.97 280.6 290.03 281.76C292.19 284.15 291.7 287.88 288.98 289.62C288.49 289.93 287.97 290.18 287.43 290.48C287.75 290.59 288.06 290.69 288.36 290.82C293.05 292.74 293.1 298.25 290.3 300.98C289.03 302.23 287.46 302.83 285.77 303.21C285.58 303.25 285.38 303.29 285.19 303.33C284.64 303.44 284.64 303.44 284.64 303.98C284.64 304.95 284.64 305.91 284.64 306.88C284.64 307.01 284.64 307.15 284.64 307.3C283.92 307.3 283.25 307.3 282.54 307.3C282.54 306.08 282.54 304.89 282.54 303.69C281.71 303.69 280.93 303.69 280.1 303.69C280.1 304.91 280.1 306.1 280.1 307.3C279.38 307.3 278.71 307.3 277.99 307.3C277.99 306.1 277.99 304.91 277.99 303.69C276.7 303.69 275.45 303.69 274.21 303.69C272.97 303.69 271.73 303.69 270.45 303.69ZM279.77 292.82C279.77 295.11 279.77 297.34 279.77 299.6C280.83 299.6 281.87 299.65 282.9 299.58C283.47 299.54 284.04 299.36 284.57 299.13C285.87 298.58 286.49 297.54 286.48 296.14C286.47 294.74 285.74 293.83 284.47 293.31C282.96 292.69 281.38 292.82 279.77 292.82ZM279.75 288.92C280.49 288.92 281.18 288.94 281.88 288.92C282.68 288.9 283.46 288.78 284.2 288.46C285.38 287.95 285.99 287 285.92 285.78C285.85 284.62 285.17 283.8 283.93 283.44C282.62 283.06 281.28 283.19 279.95 283.32C279.88 283.33 279.77 283.5 279.77 283.6C279.75 284.28 279.76 284.96 279.76 285.64C279.75 286.71 279.75 287.79 279.75 288.92Z" fill="#D4AD79"/>
<path d="M372.35 294.63C372.35 298.32 372.35 301.98 372.35 305.67C370.21 305.67 368.09 305.67 365.94 305.67C365.94 301.99 365.94 298.32 365.94 294.61C365.36 294.56 364.8 294.52 364.25 294.47C361.66 294.22 359.09 293.87 356.64 292.96C356 292.72 355.36 292.41 354.79 292.02C353.57 291.2 353.58 290.2 354.78 289.34C355.87 288.56 357.14 288.17 358.42 287.84C360.72 287.25 363.07 286.95 365.44 286.8C365.59 286.79 365.73 286.77 365.9 286.76C365.9 285.73 365.9 284.71 365.9 283.66C363 283.66 360.11 283.66 357.2 283.66C357.2 281.51 357.2 279.39 357.2 277.25C365.16 277.25 373.11 277.25 381.08 277.25C381.08 279.37 381.08 281.5 381.08 283.65C378.18 283.65 375.29 283.65 372.37 283.65C372.37 284.69 372.37 285.7 372.37 286.74C372.96 286.79 373.54 286.83 374.13 286.88C376.69 287.11 379.22 287.46 381.66 288.31C382.16 288.49 382.65 288.71 383.13 288.94C383.37 289.06 383.6 289.21 383.82 289.38C384.92 290.21 384.93 291.13 383.83 291.97C383.03 292.58 382.1 292.93 381.15 293.22C379.13 293.85 377.05 294.18 374.96 294.4C374.1 294.49 373.25 294.55 372.35 294.63ZM365.94 287.48C365.81 287.48 365.73 287.47 365.65 287.48C364.07 287.63 362.49 287.74 360.93 287.93C359.59 288.1 358.25 288.35 356.99 288.86C356.62 289.01 356.25 289.21 355.93 289.46C355.52 289.78 355.52 290.2 355.94 290.52C356.26 290.77 356.63 290.97 357 291.12C358.32 291.65 359.71 291.88 361.11 292.08C363.47 292.42 365.85 292.56 368.23 292.59C371.87 292.63 375.5 292.5 379.08 291.79C380.09 291.59 381.07 291.24 382.04 290.89C382.44 290.75 382.9 290.5 382.89 289.97C382.88 289.46 382.44 289.24 382.05 289.08C381.39 288.81 380.71 288.56 380.02 288.38C378.17 287.91 376.28 287.71 374.38 287.56C373.71 287.51 373.05 287.48 372.34 287.43C372.34 288.71 372.34 289.94 372.34 291.21C370.18 291.21 368.07 291.21 365.93 291.21C365.94 289.94 365.94 288.73 365.94 287.48Z" fill="#D4AD79"/>
<path d="M43.14 436.68C39.18 436.95 37.81 437.99 37.66 440.76C37.58 442.28 37.45 444.82 37.45 450.34V457.37C37.45 463.58 36.68 468.57 33.05 472.38C30.12 475.44 25.82 476.45 21.47 476.45C17.75 476.45 13.81 475.68 11.02 473.5C7.28 470.64 5.48 466.41 5.48 459.13V443.17C5.48 437.51 4.97 437.12 0 436.68V434.82H17V436.68C12.04 437.02 11.53 437.51 11.53 443.17V459.02C11.53 467.79 15.7 472.73 23.07 472.73C31.71 472.73 34.61 467.22 34.61 456.99V450.34C34.61 444.83 34.42 442.47 34.3 440.75C34.1 437.92 32.6 436.93 28.01 436.68V434.82H43.14V436.68Z" fill="#D4AD79"/>
<path d="M78.2897 465.05C77.8897 467.13 76.0297 473.67 75.4197 475.57H45.9297V473.71C51.5997 473.18 52.0997 472.84 52.0997 467.53V442.83C52.0997 437.51 51.4697 437.17 46.5197 436.69V434.83H63.8097V436.69C58.8197 437.18 58.1397 437.46 58.1397 442.83V468.12C58.1397 471.88 58.5697 472.88 62.1197 472.94C62.1897 472.95 66.4097 473 66.7697 473C70.0297 473 70.9697 472.56 72.4297 470.97C73.9297 469.41 75.2997 466.87 76.2797 464.5L78.2897 465.05Z" fill="#D4AD79"/>
<path d="M115.56 444.85C114.97 442.69 114.11 440.56 113.43 439.48C112.4 437.86 111.8 437.4 108.31 437.4H102.45V467.73C102.45 472.69 102.97 473.32 108.86 473.71V475.57H90.1601V473.71C95.9001 473.32 96.4101 472.74 96.4101 467.73V437.4H91.0501C87.5901 437.4 86.5901 437.81 85.5001 439.62C84.7301 440.86 84.1601 442.5 83.3401 444.85H81.3701C81.7601 440.89 82.1401 436.77 82.3201 433.35H83.8401C84.7801 434.84 85.4801 434.81 87.2601 434.81H112.12C113.86 434.81 114.43 434.54 115.39 433.35H116.95C116.96 436.24 117.21 440.93 117.53 444.65L115.56 444.85Z" fill="#D4AD79"/>
<path d="M159.72 476.04C158.98 476.04 158.28 475.99 157.48 475.93C152.3 475.61 149.88 474.32 147.28 470.67C144.93 467.43 142.75 463.5 140.72 460.21C139.52 458.26 138.7 457.89 135.72 457.89L133.7 457.88V467.59C133.7 472.87 134.38 473.21 139.34 473.72V475.58H122.17V473.72C127.29 473.17 127.75 472.87 127.75 467.59V442.77C127.75 437.51 127.07 437.23 122.17 436.7V434.84H138.55C143.31 434.84 146.4 435.42 148.81 437.02C151.37 438.66 153.06 441.47 153.06 445.3C153.06 450.72 149.57 454.03 145.02 455.97C146.11 457.9 148.76 462.08 150.64 464.91C152.94 468.25 154.16 469.84 155.56 471.38C157.21 473.16 158.51 473.82 160.02 474.24L159.72 476.04ZM136.46 455.65C139.62 455.65 141.69 455.16 143.22 453.87C145.6 452.06 146.58 449.58 146.58 446.23C146.58 439.54 142.24 437.1 137.65 437.1C135.86 437.1 134.84 437.35 134.41 437.73C133.87 438.16 133.69 438.81 133.69 440.37V455.66H136.46V455.65Z" fill="#D4AD79"/>
<path d="M181.9 475.56V473.7C185.95 473.19 186.36 472.55 185.48 470.11C184.7 467.77 183.49 464.69 182.24 461H168.94C167.99 463.66 167.06 466.09 166.23 468.55C164.86 472.6 165.85 473.1 170.96 473.69V475.55H156.3V473.69C160.25 473.19 161.25 472.73 163.43 467.15L176.41 434.34L178.6 433.93C182.56 444.68 186.87 456.4 190.84 467.17C192.9 472.69 193.47 473.18 197.85 473.68V475.54H181.9V475.56ZM175.77 442.78C173.8 448.01 171.74 453.44 169.91 458.33H181.31L175.77 442.78Z" fill="#D4AD79"/>
<path d="M230.23 434.83C234.77 434.83 238.38 435.66 240.95 437.5C243.52 439.36 245.22 442.32 245.22 446.49C245.22 455.63 237.41 459.35 231.32 459.36C230.64 459.36 229.98 459.3 229.59 459.23L225.39 458.14V467.69C225.39 472.95 225.83 473.1 231.54 473.71V475.57H213.77V473.71C219.04 473.15 219.35 472.8 219.35 467.59V442.88C219.35 437.36 218.67 437.15 213.77 436.69V434.83H230.23ZM225.39 455.87C226.14 456.25 227.75 456.65 229.74 456.65C233.7 456.65 238.81 454.6 238.81 446.63C238.81 439.71 234.42 437.04 229.37 437.04C227.64 437.04 226.43 437.35 226.05 437.77C225.56 438.2 225.38 438.93 225.38 440.48V455.87H225.39Z" fill="#D4AD79"/>
<path d="M287.87 476.04C287.13 476.04 286.43 475.99 285.63 475.93C280.45 475.61 278.03 474.32 275.43 470.67C273.08 467.43 270.9 463.5 268.87 460.21C267.67 458.26 266.85 457.89 263.87 457.89L261.85 457.88V467.59C261.85 472.87 262.53 473.21 267.49 473.72V475.58H250.32V473.72C255.44 473.17 255.9 472.87 255.9 467.59V442.77C255.9 437.51 255.22 437.23 250.32 436.7V434.84H266.7C271.46 434.84 274.55 435.42 276.96 437.02C279.52 438.66 281.21 441.47 281.21 445.3C281.21 450.72 277.72 454.03 273.17 455.97C274.26 457.9 276.91 462.08 278.79 464.91C281.09 468.25 282.31 469.84 283.71 471.38C285.36 473.16 286.66 473.82 288.17 474.24L287.87 476.04ZM264.61 455.65C267.77 455.65 269.84 455.16 271.37 453.87C273.75 452.06 274.73 449.58 274.73 446.23C274.73 439.54 270.39 437.1 265.8 437.1C264.01 437.1 262.99 437.35 262.56 437.73C262.02 438.16 261.84 438.81 261.84 440.37V455.66H264.61V455.65Z" fill="#D4AD79"/>
<path d="M310.55 433.95C321.42 433.95 330.99 442.2 330.99 454.65C330.99 468.1 321.77 476.5 310.19 476.5C298.07 476.5 289.24 467.35 289.24 455.51C289.23 444.39 297.13 433.95 310.55 433.95ZM309.35 436.35C302.44 436.35 296.36 442.31 296.36 453.91C296.36 465.37 302.36 474.05 311.18 474.05C318.47 474.05 323.98 468.39 323.98 456.41C323.97 443.38 317.39 436.35 309.35 436.35Z" fill="#D4AD79"/>
<path d="M364.34 444.72C363.75 442.85 363.16 441.2 362.25 439.86C361.04 437.86 360.12 437.41 356.7 437.41H350.36C348.49 437.41 348.29 437.59 348.29 439.46V453.79H355.87C360.24 453.79 360.58 453 361.52 448.62H363.48V461.86H361.46C360.67 457.5 360.14 456.48 355.87 456.48H348.29V467.44C348.29 472.95 348.87 473.23 354.56 473.71V475.57H336.66V473.71C341.68 473.32 342.24 472.9 342.24 467.44V442.94C342.24 437.47 341.62 437.17 336.66 436.69V434.83H356.77C362.37 434.83 364.68 434.77 365.73 434.71C365.79 436.75 366.05 441.32 366.37 444.45L364.34 444.72Z" fill="#D4AD79"/>
<path d="M371.31 475.56V473.7C376.38 473.16 376.89 472.89 376.89 467.57V442.87C376.89 437.5 376.37 437.21 371.31 436.68V434.82H388.57V436.68C383.46 437.22 382.94 437.51 382.94 442.87V467.57C382.94 472.93 383.45 473.15 388.57 473.7V475.56H371.31Z" fill="#D4AD79"/>
<path d="M427.32 444.85C426.73 442.69 425.87 440.56 425.19 439.48C424.16 437.86 423.56 437.4 420.07 437.4H414.21V467.73C414.21 472.69 414.73 473.32 420.62 473.71V475.57H401.92V473.71C407.66 473.32 408.17 472.74 408.17 467.73V437.4H402.81C399.35 437.4 398.35 437.81 397.26 439.62C396.49 440.86 395.92 442.5 395.1 444.85H393.13C393.52 440.89 393.9 436.77 394.08 433.35H395.6C396.54 434.84 397.24 434.81 399.02 434.81H423.88C425.62 434.81 426.19 434.54 427.16 433.35H428.72C428.73 436.24 428.98 440.93 429.3 444.65L427.32 444.85Z" fill="#D4AD79"/>
<path d="M481.66 444.85C481.07 442.69 480.21 440.56 479.53 439.48C478.5 437.86 477.9 437.4 474.41 437.4H468.55V467.73C468.55 472.69 469.07 473.32 474.96 473.71V475.57H456.26V473.71C462 473.32 462.51 472.74 462.51 467.73V437.4H457.15C453.69 437.4 452.69 437.81 451.6 439.62C450.83 440.86 450.26 442.5 449.44 444.85H447.47C447.86 440.89 448.24 436.77 448.42 433.35H449.94C450.88 434.84 451.58 434.81 453.36 434.81H478.22C479.96 434.81 480.53 434.54 481.49 433.35H483.05C483.06 436.24 483.31 440.93 483.63 444.65L481.66 444.85Z" fill="#D4AD79"/>
<path d="M525.82 476.04C525.08 476.04 524.38 475.99 523.58 475.93C518.4 475.61 515.97 474.32 513.37 470.67C511.02 467.43 508.84 463.5 506.81 460.21C505.61 458.26 504.79 457.89 501.81 457.89L499.79 457.88V467.59C499.79 472.87 500.47 473.21 505.42 473.72V475.58H488.25V473.72C493.37 473.17 493.83 472.87 493.83 467.59V442.77C493.83 437.51 493.15 437.23 488.25 436.7V434.84H504.63C509.38 434.84 512.48 435.42 514.89 437.02C517.45 438.66 519.14 441.47 519.14 445.3C519.14 450.72 515.65 454.03 511.1 455.97C512.19 457.9 514.84 462.08 516.72 464.91C519.02 468.25 520.24 469.84 521.64 471.38C523.29 473.16 524.59 473.82 526.1 474.24L525.82 476.04ZM502.56 455.65C505.72 455.65 507.79 455.16 509.32 453.87C511.7 452.06 512.68 449.58 512.68 446.23C512.68 439.54 508.34 437.1 503.75 437.1C501.96 437.1 500.94 437.35 500.51 437.73C499.97 438.16 499.79 438.81 499.79 440.37V455.66H502.56V455.65Z" fill="#D4AD79"/>
<path d="M548 475.56V473.7C552.05 473.19 552.46 472.55 551.58 470.11C550.8 467.77 549.59 464.69 548.34 461H535.04C534.09 463.66 533.16 466.09 532.33 468.55C530.96 472.6 531.95 473.1 537.06 473.69V475.55H522.4V473.69C526.35 473.19 527.35 472.73 529.53 467.15L542.51 434.34L544.7 433.93C548.66 444.68 552.97 456.4 556.94 467.17C559 472.69 559.57 473.18 563.95 473.68V475.54H548V475.56ZM541.86 442.78C539.89 448.01 537.83 453.44 536 458.33H547.4L541.86 442.78Z" fill="#D4AD79"/>
<path d="M583.14 434.83C591.83 434.83 597.46 436.57 601.37 440.28C604.46 443.28 606.75 447.66 606.75 453.74C606.75 461.05 603.74 466.92 598.92 470.56C594.18 474.12 588.12 475.57 580.52 475.57H565.39V473.71C570.67 473.23 570.97 472.77 570.97 467.62V442.83C570.97 437.46 570.23 437.17 565.39 436.69V434.83H583.14ZM577.01 467.12C577.01 471.78 578.86 473.12 583.53 473.12C594.3 473.12 599.91 465.74 599.91 454.61C599.91 447.94 597.72 442.74 593.14 439.78C590.3 437.82 586.73 437.09 582.54 437.09C579.81 437.09 578.38 437.49 577.8 437.97C577.24 438.38 577.01 439.14 577.01 441.47V467.12Z" fill="#D4AD79"/>
<path d="M645.26 465.47C644.9 467.11 643.19 473.7 642.58 475.56H611.75V473.72C617.56 473.26 617.98 472.74 617.98 467.58V442.97C617.98 437.44 617.28 437.11 612.66 436.69V434.83H632.05C638.06 434.83 640.46 434.77 641.24 434.71C641.3 436.2 641.57 440.98 641.82 444.4L639.84 444.71C639.28 442.58 638.57 441.04 637.81 439.76C636.78 437.84 635.46 437.41 631.8 437.41H626.19C624.17 437.41 624.02 437.59 624.02 439.46V453.17H630.83C635.32 453.17 635.69 452.23 636.47 447.93H638.5V461.03H636.47C635.62 456.5 635.12 455.85 630.77 455.85H624.02V468.02C624.02 472.4 625.17 472.94 628.44 473H634.02C637.79 473 638.47 472.46 639.85 470.82C641.11 469.41 642.41 466.89 643.31 464.96L645.26 465.47Z" fill="#D4AD79"/>
<path d="M233.614 520.226H230.06C229.85 519.203 229.482 518.305 228.956 517.531C228.44 516.757 227.81 516.108 227.064 515.582C226.329 515.047 225.512 514.646 224.614 514.378C223.716 514.111 222.779 513.977 221.805 513.977C220.028 513.977 218.418 514.426 216.975 515.324C215.542 516.222 214.4 517.546 213.55 519.294C212.709 521.043 212.289 523.188 212.289 525.729C212.289 528.27 212.709 530.415 213.55 532.164C214.4 533.912 215.542 535.236 216.975 536.134C218.418 537.032 220.028 537.481 221.805 537.481C222.779 537.481 223.716 537.347 224.614 537.08C225.512 536.812 226.329 536.416 227.064 535.89C227.81 535.355 228.44 534.701 228.956 533.927C229.482 533.143 229.85 532.245 230.06 531.232H233.614C233.346 532.732 232.859 534.075 232.152 535.259C231.445 536.444 230.566 537.452 229.515 538.283C228.464 539.105 227.284 539.731 225.975 540.161C224.676 540.591 223.286 540.806 221.805 540.806C219.302 540.806 217.075 540.194 215.126 538.971C213.177 537.748 211.644 536.01 210.526 533.755C209.408 531.5 208.849 528.825 208.849 525.729C208.849 522.633 209.408 519.958 210.526 517.703C211.644 515.449 213.177 513.71 215.126 512.487C217.075 511.264 219.302 510.652 221.805 510.652C223.286 510.652 224.676 510.867 225.975 511.297C227.284 511.727 228.464 512.358 229.515 513.189C230.566 514.011 231.445 515.014 232.152 516.199C232.859 517.374 233.346 518.716 233.614 520.226ZM264.122 525.729C264.122 528.825 263.563 531.5 262.445 533.755C261.328 536.01 259.794 537.748 257.845 538.971C255.896 540.194 253.67 540.806 251.167 540.806C248.663 540.806 246.437 540.194 244.488 538.971C242.539 537.748 241.005 536.01 239.888 533.755C238.77 531.5 238.211 528.825 238.211 525.729C238.211 522.633 238.77 519.958 239.888 517.703C241.005 515.449 242.539 513.71 244.488 512.487C246.437 511.264 248.663 510.652 251.167 510.652C253.67 510.652 255.896 511.264 257.845 512.487C259.794 513.71 261.328 515.449 262.445 517.703C263.563 519.958 264.122 522.633 264.122 525.729ZM260.683 525.729C260.683 523.188 260.258 521.043 259.407 519.294C258.566 517.546 257.425 516.222 255.982 515.324C254.549 514.426 252.944 513.977 251.167 513.977C249.389 513.977 247.78 514.426 246.337 515.324C244.904 516.222 243.762 517.546 242.912 519.294C242.071 521.043 241.65 523.188 241.65 525.729C241.65 528.27 242.071 530.415 242.912 532.164C243.762 533.912 244.904 535.236 246.337 536.134C247.78 537.032 249.389 537.481 251.167 537.481C252.944 537.481 254.549 537.032 255.982 536.134C257.425 535.236 258.566 533.912 259.407 532.164C260.258 530.415 260.683 528.27 260.683 525.729ZM270.099 511.054H274.341L284.315 535.417H284.659L294.634 511.054H298.876V540.405H295.551V518.105H295.265L286.092 540.405H282.882L273.71 518.105H273.423V540.405H270.099V511.054ZM306.003 511.054H310.245L320.219 535.417H320.563L330.538 511.054H334.78V540.405H331.455V518.105H331.169L321.997 540.405H318.786L309.614 518.105H309.327V540.405H306.003V511.054ZM361.168 511.054H364.722V530.487C364.722 532.494 364.25 534.285 363.304 535.861C362.367 537.428 361.044 538.666 359.334 539.573C357.624 540.471 355.617 540.92 353.315 540.92C351.012 540.92 349.006 540.471 347.295 539.573C345.585 538.666 344.257 537.428 343.311 535.861C342.375 534.285 341.907 532.494 341.907 530.487V511.054H345.461V530.2C345.461 531.634 345.776 532.909 346.407 534.027C347.037 535.135 347.935 536.01 349.101 536.65C350.276 537.28 351.681 537.596 353.315 537.596C354.948 537.596 356.353 537.28 357.528 536.65C358.703 536.01 359.601 535.135 360.222 534.027C360.853 532.909 361.168 531.634 361.168 530.2V511.054ZM395.095 511.054V540.405H391.655L375.661 517.359H375.374V540.405H371.82V511.054H375.26L391.311 534.156H391.598V511.054H395.095ZM405.761 511.054V540.405H402.207V511.054H405.761ZM411.282 514.206V511.054H433.295V514.206H424.066V540.405H420.512V514.206H411.282ZM436.258 511.054H440.328L448.469 524.754H448.813L456.953 511.054H461.023L450.418 528.309V540.405H446.864V528.309L436.258 511.054Z" fill="#D4AD79"/>
</svg>
