<svg width="64" height="57" viewBox="0 0 64 57" fill="none" xmlns="http://www.w3.org/2000/svg">
   <path d="M61.0832 1.34209C60.2765 0.670967 59.3029 0.231124 58.2661 0.0693676C57.2293 -0.0923888 56.168 0.0299939 55.1952 0.423492L4.41929 20.9237C3.33341 21.3704 2.40908 22.1369 1.76899 23.1212C1.12889 24.1056 0.803296 25.2614 0.835419 26.4351C0.867542 27.6089 1.25586 28.7451 1.94884 29.693C2.64182 30.6409 3.60669 31.3556 4.71537 31.7423L14.9862 35.3144L20.711 54.2457C20.7887 54.4986 20.9017 54.7393 21.0464 54.9608C21.0683 54.9949 21.0993 55.0202 21.1226 55.0532C21.2898 55.2865 21.4919 55.4926 21.7217 55.6645C21.7871 55.7143 21.8496 55.761 21.9195 55.8053C22.1885 55.9837 22.4864 56.1142 22.7999 56.1909L22.8335 56.1937L22.8525 56.2019C23.041 56.2402 23.2329 56.2597 23.4252 56.26C23.4437 56.26 23.4602 56.2511 23.4785 56.2508C23.7688 56.2457 24.0566 56.1957 24.3316 56.1026C24.3956 56.0808 24.4504 56.0443 24.5125 56.0181C24.7175 55.9331 24.9118 55.8241 25.0913 55.6935C25.235 55.5724 25.3788 55.4513 25.5226 55.3303L33.1787 46.8774L44.5978 55.7232C45.6031 56.5059 46.8405 56.9313 48.1146 56.9324C49.4496 56.9307 50.7434 56.47 51.7792 55.6277C52.8149 54.7854 53.5296 53.6127 53.8034 52.306L63.0477 6.92577C63.2572 5.9044 63.185 4.8453 62.839 3.86177C62.493 2.87823 61.8861 2.00728 61.0832 1.34209ZM24.5487 36.2165C24.1558 36.6078 23.8873 37.1064 23.7767 37.6497L22.8998 41.9111L20.6783 34.564L32.1965 28.566L24.5487 36.2165ZM48.0704 51.2435L34.576 40.7901C34.0115 40.3538 33.3033 40.1463 32.5925 40.2089C31.8818 40.2714 31.2207 40.5995 30.7411 41.1276L28.2891 43.834L29.1556 39.6224L49.2241 19.5539C49.7031 19.0756 49.995 18.4414 50.0468 17.7664C50.0986 17.0915 49.907 16.4202 49.5066 15.8743C49.1062 15.3284 48.5236 14.944 47.8642 14.7906C47.2048 14.6373 46.5123 14.7251 45.9121 15.0383L17.1105 30.0341L6.55814 26.1725L57.4972 5.79402L48.0704 51.2435Z" fill="url(#paint0_radial_1_1113)"/>
   <defs>
      <radialGradient id="paint0_radial_1_1113" cx="0" cy="0" r="1" gradientUnits="userSpaceOnUse" gradientTransform="translate(32.9938 -2.79325e-06) scale(29.1765 56.9324)">
         <stop stop-color="#D5AD79"/>
         <stop offset="1" stop-color="#D5AD79"/>
      </radialGradient>
   </defs>
</svg>
