<svg width="51" height="59" viewBox="0 0 51 59" fill="none" xmlns="http://www.w3.org/2000/svg">
<path d="M26.7505 0.961719C29.8711 0.914063 32.9687 0.938844 36.0645 0.914062C36.1674 4.78566 37.7382 8.27028 40.2372 10.8513L40.2334 10.8475C42.9232 13.2704 46.423 14.8411 50.2813 15.108L50.3347 15.1118V24.7117C46.6899 24.6202 43.2625 23.7795 40.1724 22.3346L40.3287 22.3994C38.8342 21.6807 37.5704 20.943 36.3695 20.1195L36.4686 20.1843C36.4457 27.1403 36.4915 34.0962 36.4209 41.0273C36.2246 44.5596 35.0503 47.7811 33.167 50.4708L33.2051 50.4118C30.056 54.9219 24.9548 57.8823 19.1541 58.0577H19.1274C18.893 58.0692 18.6166 58.0749 18.3382 58.0749C15.0404 58.0749 11.958 57.1561 9.33122 55.5605L9.40747 55.6044C4.62659 52.7278 1.32878 47.8059 0.718778 42.0814L0.711153 42.0033C0.663497 40.8119 0.640622 39.6205 0.688278 38.4538C1.62234 29.3439 9.25497 22.2965 18.5327 22.2965C19.5754 22.2965 20.5972 22.3861 21.5903 22.5557L21.4836 22.5405C21.5312 26.0651 21.3882 29.5917 21.3882 33.1163C20.5819 32.8247 19.6517 32.655 18.6814 32.655C15.1205 32.655 12.0915 34.9311 10.9706 38.1088L10.9534 38.166C10.6999 38.98 10.5531 39.9159 10.5531 40.8843C10.5531 41.277 10.5779 41.6659 10.6237 42.0471L10.6198 42.0014C11.2527 45.9016 14.5963 48.8448 18.628 48.8448C18.7443 48.8448 18.8587 48.8429 18.973 48.8372H18.9559C21.7447 48.7533 24.1657 47.2531 25.5343 45.0361L25.5534 45.0018C26.0624 44.2927 26.4112 43.4349 26.5275 42.5027L26.5294 42.476C26.7677 38.2118 26.6724 33.9722 26.6952 29.708C26.7181 20.1081 26.6724 10.5311 26.7429 0.956L26.7505 0.961719Z" fill="url(#paint0_radial_1_1119)"/>
<defs>
<radialGradient id="paint0_radial_1_1119" cx="0" cy="0" r="1" gradientUnits="userSpaceOnUse" gradientTransform="translate(26.291 0.91406) scale(23.251 57.1608)">
<stop stop-color="#D5AD79"/>
<stop offset="1" stop-color="#D5AD79"/>
</radialGradient>
</defs>
</svg>
