<svg width="60" height="46" viewBox="0 0 60 46" fill="none" xmlns="http://www.w3.org/2000/svg">
<path fill-rule="evenodd" clip-rule="evenodd" d="M23.7403 10.8294C22.9666 10.3872 22.016 10.3904 21.2452 10.8377C20.4744 11.285 20 12.1088 20 13V33C20 33.8912 20.4744 34.715 21.2452 35.1622C22.016 35.6095 22.9666 35.6127 23.7403 35.1705L41.2402 25.1705C42.0192 24.7255 42.5 23.8972 42.5 23C42.5 22.1027 42.0192 21.2745 41.2402 20.8295L23.7403 10.8294ZM34.961 23L25 28.692V17.3079L34.961 23Z" fill="url(#paint0_radial_1_1105)"/>
<path fill-rule="evenodd" clip-rule="evenodd" d="M0 23C0 13.6257 0 8.9385 2.38729 5.65267C3.15827 4.5915 4.0915 3.65828 5.15267 2.88728C8.4385 0.5 13.1257 0.5 22.5 0.5H37.5C46.8742 0.5 51.5615 0.5 54.8473 2.88728C55.9085 3.65828 56.8417 4.5915 57.6127 5.65267C60 8.9385 60 13.6257 60 23C60 32.3743 60 37.0615 57.6127 40.3473C56.8417 41.4085 55.9085 42.3417 54.8473 43.1127C51.5615 45.5 46.8742 45.5 37.5 45.5H22.5C13.1257 45.5 8.4385 45.5 5.15267 43.1127C4.0915 42.3417 3.15827 41.4085 2.38729 40.3473C0 37.0615 0 32.3743 0 23ZM22.5 5.5H37.5C42.2985 5.5 45.4957 5.50687 47.9182 5.76932C50.2472 6.02165 51.26 6.4612 51.9085 6.93237C52.545 7.39497 53.105 7.9549 53.5677 8.5916C54.0387 9.24012 54.4782 10.2528 54.7308 12.5817C54.9932 15.0042 55 18.2015 55 23C55 27.7985 54.9932 30.9957 54.7308 33.4182C54.4782 35.7472 54.0387 36.76 53.5677 37.4085C53.105 38.045 52.545 38.605 51.9085 39.0677C51.26 39.5387 50.2472 39.9782 47.9182 40.2308C45.4957 40.4932 42.2985 40.5 37.5 40.5H22.5C17.7015 40.5 14.5042 40.4932 12.0817 40.2308C9.75282 39.9782 8.74012 39.5387 8.0916 39.0677C7.4549 38.605 6.89497 38.045 6.43237 37.4085C5.9612 36.76 5.52165 35.7472 5.26932 33.4182C5.00687 30.9957 5 27.7985 5 23C5 18.2015 5.00687 15.0042 5.26932 12.5817C5.52165 10.2528 5.9612 9.24012 6.43237 8.5916C6.89497 7.9549 7.4549 7.39497 8.0916 6.93237C8.74012 6.4612 9.75282 6.02165 12.0817 5.76932C14.5042 5.50687 17.7015 5.5 22.5 5.5Z" fill="url(#paint1_radial_1_1105)"/>
<defs>
<radialGradient id="paint0_radial_1_1105" cx="0" cy="0" r="1" gradientUnits="userSpaceOnUse" gradientTransform="translate(31.609 10.5) scale(10.5319 24.9999)">
<stop stop-color="#D5AD79"/>
<stop offset="1" stop-color="#D5AD79"/>
</radialGradient>
<radialGradient id="paint1_radial_1_1105" cx="0" cy="0" r="1" gradientUnits="userSpaceOnUse" gradientTransform="translate(30.9574 0.499998) scale(28.0851 45)">
<stop stop-color="#D5AD79"/>
<stop offset="1" stop-color="#D5AD79"/>
</radialGradient>
</defs>
</svg>
